HIERARCHY
ROOT Hips
{
  OFFSET 0.000000 0.000000 0.000000
  CHANNELS 6 Xposition Yposition Zposition Xrotation Yrotation Zrotation
  JOINT Spine
  {
    OFFSET 1.602333 -23.943604 -2.409543
    CHANNELS 3 Xrotation Yrotation Zrotation
    JOINT Chest
    {
      OFFSET 1.602333 -23.943604 -2.409543
      CHANNELS 3 Xrotation Yrotation Zrotation
      JOINT Neck
      {
        OFFSET 3.806094 -17.923844 -5.988769
        CHANNELS 3 Xrotation Yrotation Zrotation
        JOINT Head
        {
          OFFSET 6.327906 5.395311 -10.000731
          CHANNELS 3 Xrotation Yrotation Zrotation
          End Site
          {
            OFFSET 0.0 5.0 2.0
          }
        }
      }
      JOINT LeftShoulder
      {
        OFFSET 15.502173 1.195735 6.811843
        CHANNELS 3 Xrotation Yrotation Zrotation
        JOINT LeftArm
        {
          OFFSET 3.049198 17.579728 -11.048325
          CHANNELS 3 Xrotation Yrotation Zrotation
          JOINT LeftForeArm
          {
            OFFSET 2.612628 -12.912878 -19.404069
            CHANNELS 3 Xrotation Yrotation Zrotation
            JOINT LeftHand
            {
              OFFSET -5.000000 0.000000 0.000000
              CHANNELS 3 Xrotation Yrotation Zrotation
              End Site
              {
                OFFSET -3.0 0.0 2.0
              }
            }
          }
        }
      }
      JOINT RightShoulder
      {
        OFFSET -15.502173 -1.195735 -6.811843
        CHANNELS 3 Xrotation Yrotation Zrotation
        JOINT RightArm
        {
          OFFSET 1.860282 20.699400 -12.838847
          CHANNELS 3 Xrotation Yrotation Zrotation
          JOINT RightForeArm
          {
            OFFSET 18.567713 -8.436623 -13.447486
            CHANNELS 3 Xrotation Yrotation Zrotation
            JOINT RightHand
            {
              OFFSET 4.576148 -2.697205 -1.096402
              CHANNELS 3 Xrotation Yrotation Zrotation
              End Site
              {
                OFFSET 3.0 0.0 2.0
              }
            }
          }
        }
      }
    }
  }
  JOINT LeftUpLeg
  {
    OFFSET 12.055773 0.411694 2.557491
    CHANNELS 3 Xrotation Yrotation Zrotation
    JOINT LeftLeg
    {
      OFFSET 12.719119 36.398606 -2.685860
      CHANNELS 3 Xrotation Yrotation Zrotation
      JOINT LeftFoot
      {
        OFFSET 7.820123 26.401424 24.718294
        CHANNELS 3 Xrotation Yrotation Zrotation
        JOINT LeftToeBase
        {
          OFFSET 7.851410 13.775814 -6.190473
          CHANNELS 3 Xrotation Yrotation Zrotation
          End Site
          {
            OFFSET 0.0 -1.0 3.0
          }
        }
      }
    }
  }
  JOINT RightUpLeg
  {
    OFFSET -12.055773 -0.411694 -2.557491
    CHANNELS 3 Xrotation Yrotation Zrotation
    JOINT RightLeg
    {
      OFFSET -15.729471 35.705056 2.000000
      CHANNELS 3 Xrotation Yrotation Zrotation
      JOINT RightFoot
      {
        OFFSET -14.311993 22.750783 26.458322
        CHANNELS 3 Xrotation Yrotation Zrotation
        JOINT RightToeBase
        {
          OFFSET -9.751311 10.017675 -8.024450
          CHANNELS 3 Xrotation Yrotation Zrotation
          End Site
          {
            OFFSET 0.0 -1.0 3.0
          }
        }
      }
    }
  }
}
MOTION
Frames: 9
Frame Time: 0.066667
0.000000 0.000000 0.000000 0.000000 0.000000 0.000000 0.000000 0.000000 0.000000 0.000000 0.000000 0.000000 0.000000 0.000000 0.000000 0.000000 0.000000 0.000000 0.000000 0.000000 0.000000 0.000000 0.000000 0.000000 -24.373494 -24.248075 90.304646 0.000000 0.000000 0.000000 0.000000 0.000000 0.000000 0.000000 0.000000 0.000000 0.000000 0.000000 0.000000 0.000000 0.000000 0.000000 0.000000 0.000000 0.000000 0.000000 0.000000 0.000000 38.673089 -19.602995 -6.938317 0.000000 0.000000 0.000000 -2.353877 -1.036570 0.021296 0.000000 0.000000 0.000000 50.815604 37.034797 18.079287 0.000000 0.000000 0.000000
0.000000 0.000000 0.000000 0.001489 -0.115622 0.011538 2.458281 0.091116 0.602706 0.567522 -1.354113 -1.031880 -0.838015 -2.229974 -1.731514 0.000000 0.000000 0.000000 1.830776 -2.634950 -3.851127 3.596884 2.046504 -0.794785 -25.977897 -26.748238 88.265369 0.000000 0.000000 0.000000 1.418188 0.318000 0.736522 0.616645 3.510078 -1.274221 1.985675 4.088573 -1.428971 0.000000 0.000000 0.000000 -7.722191 2.507748 -1.389016 -3.736037 0.745229 0.375967 41.547923 -20.666715 -9.413257 0.000000 0.000000 0.000000 -0.743540 -0.380382 1.101813 -0.737837 0.355010 -0.709400 49.388030 36.409065 13.036241 0.000000 0.000000 0.000000
0.000000 0.000000 0.000000 0.161535 -1.664127 -0.464026 5.328143 -0.194475 3.741505 -0.445544 -4.043720 1.611338 3.987472 -7.911270 -2.161560 0.000000 0.000000 0.000000 6.355370 -1.789353 -1.312485 -1.095418 0.905236 -0.762601 -25.509128 -24.614342 92.112103 0.000000 0.000000 0.000000 5.691899 2.126857 4.724005 1.830235 -1.821283 3.683632 -0.001483 -1.911068 5.043845 0.000000 0.000000 0.000000 -6.794261 0.401266 -14.635934 -2.439509 5.621612 -5.565931 38.317641 -19.494600 -16.559402 0.000000 0.000000 0.000000 1.499008 1.094103 -5.900763 8.683493 1.902254 2.991815 40.694000 31.404608 2.678183 0.000000 0.000000 0.000000
0.000000 0.000000 0.000000 0.375872 -1.430634 -1.459465 7.710428 0.619161 -0.583172 0.894784 -0.810867 -1.867551 4.782958 -2.974211 1.351578 0.000000 0.000000 0.000000 9.181975 -3.126306 -3.106989 10.617781 -2.638196 2.780579 -46.503665 -37.567900 103.271854 0.000000 0.000000 0.000000 7.737681 1.957784 4.935146 2.571643 3.266977 1.494597 -0.312997 1.527666 -4.829623 0.000000 0.000000 0.000000 -15.985867 2.164253 -15.664572 -4.998934 5.231989 -4.511531 40.103116 -20.031226 -17.111445 0.000000 0.000000 0.000000 4.261293 2.351724 -4.584077 9.240148 3.472739 2.120416 44.236066 33.567410 4.739281 0.000000 0.000000 0.000000
0.000000 0.000000 0.000000 0.502369 1.923590 -2.895950 4.636962 1.186938 -6.140626 3.323783 7.973970 -10.293316 6.986275 8.283429 9.269194 0.000000 0.000000 0.000000 14.401669 -4.826926 -5.456671 25.408612 -2.287379 3.907498 -86.443198 -65.093278 111.637816 0.000000 0.000000 0.000000 11.451176 -3.029535 -4.221564 1.749326 9.424479 -2.995831 0.525923 7.277504 -12.249189 0.000000 0.000000 0.000000 -14.324824 2.189214 -13.820559 -1.658102 5.458152 -5.554038 39.271265 -19.795284 -14.719062 0.000000 0.000000 0.000000 3.414008 1.692663 -2.009143 3.386383 5.240102 -2.400819 41.784621 32.309831 5.572790 0.000000 0.000000 0.000000
0.000000 0.000000 0.000000 0.826853 2.457683 -4.747851 5.084832 1.246008 -6.168264 3.915870 4.945216 -10.561844 6.537577 2.787332 5.890073 0.000000 0.000000 0.000000 10.023491 -5.081260 -6.786191 17.909846 -1.622577 2.950888 -60.677479 -43.176552 111.875162 0.000000 0.000000 0.000000 6.834571 -2.188866 -2.961379 2.724754 9.937962 -1.982797 -0.067596 5.724981 -11.869608 0.000000 0.000000 0.000000 -19.270150 3.174965 -14.384321 -6.504534 6.511895 -5.718821 40.634587 -20.143337 -19.773475 0.000000 0.000000 0.000000 2.722980 1.414769 -2.500791 6.851056 7.190250 -1.888002 37.785577 29.276447 -0.190122 0.000000 0.000000 0.000000
0.000000 0.000000 0.000000 0.987843 2.299907 -5.517743 5.877304 1.185808 -5.145622 4.106304 1.732502 -9.844208 5.284941 -5.317918 0.242930 0.000000 0.000000 0.000000 8.445094 -4.954367 -6.791146 13.853458 -3.245138 3.378862 -53.915502 -36.563114 113.988181 0.000000 0.000000 0.000000 5.549732 -1.797370 -2.370744 3.147428 10.025783 -1.478335 0.084120 5.858221 -11.536537 0.000000 0.000000 0.000000 -20.211483 3.247515 -14.923817 -7.261089 6.538583 -5.581547 41.075348 -20.283551 -18.885092 0.000000 0.000000 0.000000 2.434916 1.358713 -3.445698 8.685052 7.037179 -0.743379 38.342851 29.267729 -2.647008 0.000000 0.000000 0.000000
0.000000 0.000000 0.000000 1.182797 1.082797 -5.990583 5.371452 0.327851 0.226234 1.823856 -3.590617 -3.329864 4.986195 -7.516072 -1.317047 0.000000 0.000000 0.000000 3.637213 -3.252502 -4.538414 10.939039 -0.620187 1.722081 -38.298262 -30.300831 104.108689 0.000000 0.000000 0.000000 1.955504 -2.088424 -3.215866 6.923972 4.361801 6.501892 2.917471 5.787030 -1.508600 0.000000 0.000000 0.000000 -23.550773 3.134405 -17.880311 -11.668374 7.529720 -5.879806 41.054987 -20.227201 -21.277679 0.000000 0.000000 0.000000 1.492667 1.137579 -6.519862 11.738015 5.534184 1.954549 37.136659 28.748110 -0.933756 0.000000 0.000000 0.000000
0.000000 0.000000 0.000000 1.407464 -2.111586 -5.800221 5.120136 -0.350219 4.761715 0.248171 -7.326458 0.617015 3.860231 -5.889223 -0.985112 0.000000 0.000000 0.000000 8.683582 -0.713072 1.381608 7.254487 -4.464098 3.535428 -43.859455 -30.469836 111.845356 0.000000 0.000000 0.000000 3.496213 0.357853 1.150674 7.499062 3.233875 7.905085 7.309778 7.133822 9.457616 0.000000 0.000000 0.000000 -23.514782 2.080198 -21.547828 -11.495282 6.445976 -4.448148 39.378431 -19.793591 -20.394795 0.000000 0.000000 0.000000 1.307764 1.250505 -9.304744 13.691587 2.000873 5.353584 36.442942 27.422632 -5.923773 0.000000 0.000000 0.000000
